#Comment line ignore any data following # character 
#Hierarchical Translation and Rotation (.htr) file 
[Header]	
#Header keywords are followed by a single value 
FileType HTR		#Single word string
DataType HTRS		#Translation followed by rotation and scale data
FileVersion 1		#integer
NumSegments 64		#integer
NumFrames 3		#integer
DataFrameRate 30		#integer, data frame rate in this file
EulerRotationOrder ZYX
CalibrationUnits mm
RotationUnits Degrees
GlobalAxisofGravity Y
BoneLengthAxis Y
ScaleFactor 1.00
[SegmentNames&Hierarchy]
#CHILD	PARENT
Pinger_Root GLOBAL
Pelvis Pinger_Root
L_Hip Pelvis
R_Hip Pelvis
Rear_Leg01 Pelvis
Spine1 Pelvis
L_Leg01 L_Hip
L_Leg02 L_Leg01
L_Leg03 L_Leg02
L_Foot L_Leg03
L_Toe1_01 L_Foot
L_Toe2_01 L_Foot
L_Toe3_01 L_Foot
planeAlignerLeft L_Foot
L_Toe1_02 L_Toe1_01
L_Toe1_03 L_Toe1_02
L_Toe2_02 L_Toe2_01
L_Toe2_03 L_Toe2_02
L_Toe3_02 L_Toe3_01
L_Toe3_03 L_Toe3_02
planeLockWeightLeft planeAlignerLeft
R_Leg01 R_Hip
R_Leg02 R_Leg01
R_Leg03 R_Leg02
R_Foot R_Leg03
planeAlignerRight R_Foot
R_Toe1_01 R_Foot
R_Toe2_01 R_Foot
R_Toe3_01 R_Foot
planeLockWeightRight planeAlignerRight
R_Toe1_02 R_Toe1_01
R_Toe1_03 R_Toe1_02
R_Toe2_02 R_Toe2_01
R_Toe2_03 R_Toe2_02
R_Toe3_02 R_Toe3_01
R_Toe3_03 R_Toe3_02
Rear_Leg02 Rear_Leg01
Rear_Leg03 Rear_Leg02
Rear_Leg04 Rear_Leg03
Rear_Foot Rear_Leg04
planeAlignerCenter Rear_Foot
Rear_Toe1_01 Rear_Foot
Rear_Toe2_01 Rear_Foot
Rear_Toe3_01 Rear_Foot
planeLockWeightCenter planeAlignerCenter
Rear_Toe1_02 Rear_Toe1_01
Rear_Toe1_03 Rear_Toe1_02
Rear_Toe2_02 Rear_Toe2_01
Rear_Toe2_03 Rear_Toe2_02
Rear_Toe3_02 Rear_Toe3_01
Rear_Toe3_03 Rear_Toe3_02
Back_Bone Spine1
Head Spine1
Motor_Bone Back_Bone
Ping_Mechanism Back_Bone
BN_LookIK Head
bottomMouth Head
L_Mouth01 Head
L_mouthFront Head
mouthGun Head
R_Mouth01 Head
R_mouthFront Head
TopMouth Head
weapon_bone Head
[BasePosition]
#SegmentName Tx, Ty, Tz, Rx, Ry, Rz, BoneLength
Pinger_Root 0.000000 0.000000 0.000000 -90.000000 0.000000 0.000000 10.000000 
Pelvis 0.000000 0.000000 0.000000 0.000000 0.000000 0.000000 10.000000 
L_Hip 0.000000 0.000000 0.000000 0.000000 0.000000 0.000000 10.000000 
R_Hip 0.000000 0.000000 0.000000 0.000000 0.000000 0.000000 10.000000 
Rear_Leg01 0.000000 0.000000 0.000000 0.000000 0.000000 0.000000 10.000000 
Spine1 0.000000 0.000000 0.000000 0.000000 0.000000 0.000000 10.000000 
L_Leg01 0.000000 0.000000 0.000000 0.000000 0.000000 0.000000 10.000000 
L_Leg02 0.000000 0.000000 0.000000 0.000000 0.000000 0.000000 10.000000 
L_Leg03 0.000000 0.000000 0.000000 0.000000 0.000000 0.000000 10.000000 
L_Foot 0.000000 0.000000 0.000000 0.000000 0.000000 0.000000 10.000000 
L_Toe1_01 0.000000 0.000000 0.000000 0.000000 0.000000 0.000000 10.000000 
L_Toe2_01 0.000000 0.000000 0.000000 0.000000 0.000000 0.000000 10.000000 
L_Toe3_01 0.000000 0.000000 0.000000 0.000000 0.000000 0.000000 10.000000 
planeAlignerLeft 0.000000 0.000000 0.000000 0.000000 0.000000 0.000000 10.000000 
L_Toe1_02 0.000000 0.000000 0.000000 0.000000 0.000000 0.000000 10.000000 
L_Toe1_03 0.000000 0.000000 0.000000 0.000000 0.000000 0.000000 10.000000 
L_Toe2_02 0.000000 0.000000 0.000000 0.000000 0.000000 0.000000 10.000000 
L_Toe2_03 0.000000 0.000000 0.000000 0.000000 0.000000 0.000000 10.000000 
L_Toe3_02 0.000000 0.000000 0.000000 0.000000 0.000000 0.000000 10.000000 
L_Toe3_03 0.000000 0.000000 0.000000 0.000000 0.000000 0.000000 10.000000 
planeLockWeightLeft 0.000000 0.000000 0.000000 0.000000 0.000000 0.000000 10.000000 
R_Leg01 0.000000 0.000000 0.000000 0.000000 0.000000 0.000000 10.000000 
R_Leg02 0.000000 0.000000 0.000000 0.000000 0.000000 0.000000 10.000000 
R_Leg03 0.000000 0.000000 0.000000 0.000000 0.000000 0.000000 10.000000 
R_Foot 0.000000 0.000000 0.000000 0.000000 0.000000 0.000000 10.000000 
planeAlignerRight 0.000000 0.000000 0.000000 0.000000 0.000000 0.000000 10.000000 
R_Toe1_01 0.000000 0.000000 0.000000 0.000000 0.000000 0.000000 10.000000 
R_Toe2_01 0.000000 0.000000 0.000000 0.000000 0.000000 0.000000 10.000000 
R_Toe3_01 0.000000 0.000000 0.000000 0.000000 0.000000 0.000000 10.000000 
planeLockWeightRight 0.000000 0.000000 0.000000 0.000000 0.000000 0.000000 10.000000 
R_Toe1_02 0.000000 0.000000 0.000000 0.000000 0.000000 0.000000 10.000000 
R_Toe1_03 0.000000 0.000000 0.000000 0.000000 0.000000 0.000000 10.000000 
R_Toe2_02 0.000000 0.000000 0.000000 0.000000 0.000000 0.000000 10.000000 
R_Toe2_03 0.000000 0.000000 0.000000 0.000000 0.000000 0.000000 10.000000 
R_Toe3_02 0.000000 0.000000 0.000000 0.000000 0.000000 0.000000 10.000000 
R_Toe3_03 0.000000 0.000000 0.000000 0.000000 0.000000 0.000000 10.000000 
Rear_Leg02 0.000000 0.000000 0.000000 0.000000 0.000000 0.000000 10.000000 
Rear_Leg03 0.000000 0.000000 0.000000 0.000000 0.000000 0.000000 10.000000 
Rear_Leg04 0.000000 0.000000 0.000000 0.000000 0.000000 0.000000 10.000000 
Rear_Foot 0.000000 0.000000 0.000000 0.000000 0.000000 0.000000 10.000000 
planeAlignerCenter 0.000000 0.000000 0.000000 0.000000 0.000000 0.000000 10.000000 
Rear_Toe1_01 0.000000 0.000000 0.000000 0.000000 0.000000 0.000000 10.000000 
Rear_Toe2_01 0.000000 0.000000 0.000000 0.000000 0.000000 0.000000 10.000000 
Rear_Toe3_01 0.000000 0.000000 0.000000 0.000000 0.000000 0.000000 10.000000 
planeLockWeightCenter 0.000000 0.000000 0.000000 0.000000 0.000000 0.000000 10.000000 
Rear_Toe1_02 0.000000 0.000000 0.000000 0.000000 0.000000 0.000000 10.000000 
Rear_Toe1_03 0.000000 0.000000 0.000000 0.000000 0.000000 0.000000 10.000000 
Rear_Toe2_02 0.000000 0.000000 0.000000 0.000000 0.000000 0.000000 10.000000 
Rear_Toe2_03 0.000000 0.000000 0.000000 0.000000 0.000000 0.000000 10.000000 
Rear_Toe3_02 0.000000 0.000000 0.000000 0.000000 0.000000 0.000000 10.000000 
Rear_Toe3_03 0.000000 0.000000 0.000000 0.000000 0.000000 0.000000 10.000000 
Back_Bone 0.000000 0.000000 0.000000 0.000000 0.000000 0.000000 10.000000 
Head 0.000000 0.000000 0.000000 0.000000 0.000000 0.000000 10.000000 
Motor_Bone 0.000000 0.000000 0.000000 0.000000 0.000000 0.000000 10.000000 
Ping_Mechanism 0.000000 0.000000 0.000000 0.000000 0.000000 0.000000 10.000000 
BN_LookIK 0.000000 0.000000 0.000000 0.000000 0.000000 0.000000 10.000000 
bottomMouth 0.000000 0.000000 0.000000 0.000000 0.000000 0.000000 10.000000 
L_Mouth01 0.000000 0.000000 0.000000 0.000000 0.000000 0.000000 10.000000 
L_mouthFront 0.000000 0.000000 0.000000 0.000000 0.000000 0.000000 10.000000 
mouthGun 0.000000 0.000000 0.000000 0.000000 0.000000 0.000000 10.000000 
R_Mouth01 0.000000 0.000000 0.000000 0.000000 0.000000 0.000000 10.000000 
R_mouthFront 0.000000 0.000000 0.000000 0.000000 0.000000 0.000000 10.000000 
TopMouth 0.000000 0.000000 0.000000 0.000000 0.000000 0.000000 10.000000 
weapon_bone 0.000000 0.000000 0.000000 0.000000 0.000000 0.000000 10.000000 
#Beginning of Data. Separated by tabs
#Fr	Tx	Ty	Tz	Rx	Ry	Rz	SF
[Pinger_Root]
17 0.000000 0.000000 0.000000 -0.000075 -0.000000 -0.000020 0.000000
18 0.000000 0.000000 0.000000 -0.000075 -0.000000 -0.000020 0.000000
19 0.000000 0.000000 0.000000 -0.000075 -0.000000 -0.000020 0.000000
[Pelvis]
17 75.213684 831.263855 4974.853516 -61.599346 -84.013390 54.140873 5044.385742
18 69.389847 847.783752 4985.656738 -67.222893 -82.308968 59.813984 5057.699707
19 64.038208 866.008362 4992.191895 -72.483757 -79.935318 65.143814 5067.153809
[L_Hip]
17 5.766392 125.831482 872.656799 160.158691 -45.484905 122.312202 881.701050
18 5.766392 125.831482 872.656799 160.158691 -45.484905 122.312202 881.701050
19 5.766392 125.831482 872.656799 160.158691 -45.484894 122.312187 881.701050
[R_Hip]
17 5.765438 125.836372 -872.654907 38.087830 49.812672 125.703735 881.699829
18 5.765438 125.836372 -872.654907 38.087841 49.812687 125.703735 881.699829
19 5.765438 125.836372 -872.654907 38.087837 49.812698 125.703735 881.699829
[Rear_Leg01]
17 -192.298416 -925.602966 -0.001907 171.679733 6.221465 -156.401764 945.367432
18 -192.298416 -925.602966 -0.001907 172.066284 6.778361 -155.529190 945.367432
19 -192.298416 -925.602966 -0.001907 172.407425 7.200621 -155.592377 945.367432
[Spine1]
17 290.604584 5.007505 0.000477 5.713576 -4.099990 20.014078 290.647736
18 290.604584 5.007505 0.000477 5.736928 -4.108160 17.125172 290.647736
19 290.604584 5.007505 0.000477 5.790653 -4.047792 13.630371 290.647736
[L_Leg01]
17 761.932007 -0.002384 -0.069261 19.307531 -17.999155 -16.356213 761.932068
18 761.932007 -0.002384 -0.069261 17.750376 -17.429991 -14.119935 761.932068
19 761.932007 -0.002384 -0.069261 15.621109 -17.223373 -10.912127 761.932068
[L_Leg02]
17 1441.140503 -0.000954 -0.000715 1.297594 -0.535155 -105.505714 1441.140503
18 1441.140503 -0.000954 -0.000715 3.159210 -1.283792 -106.080101 1441.140503
19 1441.140503 -0.000954 -0.000715 4.853800 -1.948514 -107.273590 1441.140503
[L_Leg03]
17 1686.963989 -0.000715 -0.000954 0.039825 -0.013785 99.346695 1686.963989
18 1686.963989 -0.000715 -0.000954 0.038211 -0.011945 99.479553 1686.963989
19 1686.963989 -0.000715 -0.000954 0.036601 -0.010100 99.612419 1686.963989
[L_Foot]
17 3041.570068 -30.715107 11.297464 4.244695 12.548814 56.876400 3041.746094
18 3041.570068 -30.715107 11.297464 5.122460 11.597529 57.226410 3041.746094
19 3041.570068 -30.715107 11.297464 5.904432 10.610799 57.607716 3041.746094
[L_Toe1_01]
17 -188.216690 -224.732346 -21.137953 93.847702 -6.897949 -173.561005 293.899567
18 -188.216690 -224.732346 -21.137953 93.854370 -6.837448 -173.605637 293.899567
19 -188.216690 -224.732346 -21.137953 93.860977 -6.776939 -173.650269 293.899567
[L_Toe2_01]
17 200.746536 -219.926590 148.838394 -90.726082 -26.817856 -50.691952 332.896027
18 200.746536 -219.926590 148.838394 -90.738029 -26.733089 -50.720005 332.896027
19 200.746536 -219.926590 148.838394 -90.750023 -26.648329 -50.748043 332.896027
[L_Toe3_01]
17 188.832520 -219.859131 -191.078659 -99.486893 14.412036 -65.507591 347.140900
18 188.832520 -219.859131 -191.078659 -99.519196 14.443006 -65.582855 347.140900
19 188.832520 -219.859131 -191.078659 -99.551559 14.473939 -65.658157 347.140900
[planeAlignerLeft]
17 32.883057 -565.402161 101.227394 169.306686 -76.298271 89.968506 575.332825
18 34.117676 -566.552124 99.681862 169.306686 -76.298271 89.968506 576.265381
19 35.352295 -567.701965 98.136337 169.306656 -76.298256 89.968506 577.205444
[L_Toe1_02]
17 413.761139 0.000477 0.000000 0.000203 -25.410625 -0.000182 413.761139
18 413.761139 0.000477 0.000000 0.000203 -25.410625 -0.000182 413.761139
19 413.761139 0.000477 0.000000 0.000203 -25.410625 -0.000182 413.761139
[L_Toe1_03]
17 464.317322 0.000358 -0.000089 0.003832 54.326523 0.003832 464.317322
18 464.317322 0.000358 -0.000089 0.003867 54.661907 0.003867 464.317322
19 464.317322 0.000358 -0.000089 0.003903 54.997292 0.003903 464.317322
[L_Toe2_02]
17 342.235809 -0.000477 0.000238 0.001186 -73.373421 0.001186 342.235809
18 342.235809 -0.000477 0.000238 0.001186 -73.336372 0.001186 342.235809
19 342.235809 -0.000477 0.000238 0.001186 -73.296349 0.001186 342.235809
[L_Toe2_03]
17 420.210846 -0.000715 0.000000 -0.036796 88.120804 -0.033299 420.210846
18 420.210846 -0.000715 0.000000 -0.034231 87.972229 -0.030734 420.210846
19 420.210846 -0.000715 0.000000 -0.032017 87.823898 -0.028519 420.210846
[L_Toe3_02]
17 329.270111 0.000954 0.000000 0.001177 -81.318703 0.001177 329.270111
18 329.270111 0.000954 0.000000 0.001177 -81.249313 0.001177 329.270111
19 329.270111 0.000954 0.000000 0.001177 -81.179848 0.001177 329.270111
[L_Toe3_03]
17 439.137451 -0.001907 0.000954 -179.997314 75.133064 -179.993790 439.137451
18 439.137451 -0.001907 0.000954 -179.997223 75.456490 -179.993698 439.137451
19 439.137451 -0.001907 0.000954 -179.997131 75.779938 -179.993607 439.137451
[planeLockWeightLeft]
17 999.998718 0.097961 0.076027 -0.011826 -0.004376 0.005620 999.998779
18 999.998718 0.097961 0.076027 -0.011826 -0.004376 0.005620 999.998779
19 999.998718 0.097961 0.076027 -0.011826 -0.004376 0.005620 999.998779
[R_Leg01]
17 761.455627 -0.001907 -0.000358 124.239845 -23.002073 22.749605 761.455688
18 761.455627 -0.001907 -0.000358 126.183632 -23.696526 19.334785 761.455688
19 761.455627 -0.001907 -0.000358 128.793747 -25.005743 15.272365 761.455688
[R_Leg02]
17 1441.140625 0.000000 -0.000238 -1.964909 0.519666 -120.091789 1441.140625
18 1441.140625 0.000000 -0.000238 -3.651188 0.998747 -120.915619 1441.140625
19 1441.140625 0.000000 -0.000238 -5.146605 1.435406 -122.150352 1441.140625
[R_Leg03]
17 1686.963989 0.000954 0.001431 -0.010280 0.005122 107.519966 1686.963989
18 1686.963989 0.000954 0.001431 -0.011676 0.005306 107.235176 1686.963989
19 1686.963989 0.000954 0.001431 -0.013072 0.005483 106.950386 1686.963989
[R_Foot]
17 3041.560059 -30.531288 -11.204481 -2.902600 -22.882359 63.737156 3041.734131
18 3041.560059 -30.531288 -11.204481 -3.356914 -21.529839 64.286293 3041.734131
19 3041.560059 -30.531288 -11.204481 -3.793325 -20.173418 64.819046 3041.734131
[planeAlignerRight]
17 -127.277893 -546.373657 -313.043640 -36.577137 -71.339012 -64.343925 642.433044
18 -125.900818 -547.593384 -311.340942 -36.577137 -71.339012 -64.343925 642.372681
19 -124.523743 -548.813049 -309.638214 -36.577137 -71.339012 -64.343925 642.322144
[R_Toe1_01]
17 -188.383347 -224.864899 21.052242 76.819862 -0.510302 -174.521667 294.101532
18 -188.383347 -224.864899 21.052242 76.826263 -0.586818 -174.531555 294.101532
19 -188.383347 -224.864899 21.052242 76.832672 -0.663332 -174.541458 294.101532
[R_Toe2_01]
17 200.637817 -220.002121 -148.787384 -91.042885 33.578178 -57.517891 332.857574
18 200.637817 -220.002121 -148.787384 -91.007248 33.463524 -57.518288 332.857574
19 200.637817 -220.002121 -148.787384 -90.971695 33.348892 -57.518787 332.857574
[R_Toe3_01]
17 188.606735 -220.092957 191.126343 -73.225060 -8.953251 -72.073242 347.192566
18 188.606735 -220.092957 191.126343 -73.195816 -8.982203 -72.115799 347.192566
19 188.606735 -220.092957 191.126343 -73.166557 -9.011134 -72.158394 347.192566
[planeLockWeightRight]
17 999.999329 0.000000 0.076017 -0.011823 -0.004379 -0.000027 999.999329
18 999.999329 0.000000 0.076017 -0.011823 -0.004379 -0.000027 999.999329
19 999.999329 0.000000 0.076017 -0.011823 -0.004379 -0.000027 999.999329
[R_Toe1_02]
17 413.762085 0.000477 -0.000119 0.001396 -24.467144 0.001396 413.762085
18 413.762085 0.000477 -0.000119 0.001396 -24.440834 0.001396 413.762085
19 413.762085 0.000477 -0.000119 0.001396 -24.414520 0.001396 413.762085
[R_Toe1_03]
17 464.317810 0.000000 0.001088 0.007020 70.752625 0.007020 464.317810
18 464.317810 0.000000 0.001088 0.007090 70.944435 0.007090 464.317810
19 464.317810 0.000000 0.001088 0.007162 71.136276 0.007162 464.317810
[R_Toe2_02]
17 342.234741 -0.000954 0.000238 0.001194 -68.680588 0.001194 342.234741
18 342.234741 -0.000954 0.000238 0.001194 -68.630669 0.001194 342.234741
19 342.234741 -0.000954 0.000238 0.001194 -68.580765 0.001194 342.234741
[R_Toe2_03]
17 420.210846 0.000715 -0.000268 0.010088 76.638115 0.010088 420.210846
18 420.210846 0.000715 -0.000268 0.009998 76.517014 0.009998 420.210846
19 420.210846 0.000715 -0.000268 0.009909 76.395874 0.009909 420.210846
[R_Toe3_02]
17 329.270355 -0.000477 -0.000954 0.001182 -76.106285 0.001182 329.270355
18 329.270355 -0.000477 -0.000954 0.001182 -75.975990 0.001182 329.270355
19 329.270355 -0.000477 -0.000954 0.001183 -75.845650 0.001183 329.270355
[R_Toe3_03]
17 439.137939 0.000238 0.001431 -0.027176 87.409431 -0.023678 439.137939
18 439.137939 0.000238 0.001431 -0.023901 87.026253 -0.020403 439.137939
19 439.137939 0.000238 0.001431 -0.021373 86.643044 -0.017874 439.137939
[Rear_Leg02]
17 1162.777710 -0.029802 0.005960 -0.346796 -2.996667 -92.258812 1162.777710
18 1162.777710 -0.029802 0.005960 -0.440132 -2.987464 -86.811478 1162.777710
19 1162.777710 -0.029802 0.005960 -0.585065 -2.971060 -81.072968 1162.777710
[Rear_Leg03]
17 607.192505 -0.013351 -0.073195 0.006598 -0.001687 56.896278 607.192505
18 607.192505 -0.013351 -0.073195 0.006609 -0.001643 56.132671 607.192505
19 607.192505 -0.013351 -0.073195 0.006624 -0.001582 55.070374 607.192505
[Rear_Leg04]
17 995.874512 -0.020504 -0.011921 -0.036561 -0.015271 44.660610 995.874573
18 995.874512 -0.020504 -0.011921 -0.036389 -0.015679 43.380325 995.874573
19 995.874512 -0.020504 -0.011921 -0.036142 -0.016240 41.607971 995.874573
[Rear_Foot]
17 3096.176270 -0.067472 -0.041425 -135.026169 86.119095 52.397545 3096.176270
18 3096.176270 -0.067472 -0.041425 -133.550018 86.184792 53.135681 3096.176270
19 3096.176270 -0.067472 -0.041425 -132.273178 86.232468 53.928692 3096.176270
[planeAlignerCenter]
17 1.038036 -15.543519 -749.412109 12.240772 -0.001473 179.998184 749.573975
18 1.038132 -14.240873 -750.338379 12.240769 -0.001473 179.998184 750.474243
19 1.038227 -12.938232 -751.264587 12.240770 -0.001473 179.998184 751.376709
[Rear_Toe1_01]
17 0.653352 83.966492 -371.173737 0.282163 39.934189 90.406189 380.553192
18 0.653352 83.966492 -371.173737 0.282059 40.011196 90.405983 380.553192
19 0.653352 83.966492 -371.173737 0.281961 40.088230 90.405800 380.553192
[Rear_Toe2_01]
17 178.200760 -294.826019 -362.060547 -7.392928 32.966843 -66.341125 499.765686
18 178.200760 -294.826019 -362.060547 -7.380120 33.019970 -66.309746 499.765686
19 178.200760 -294.826019 -362.060547 -7.367275 33.073086 -66.278343 499.765686
[Rear_Toe3_01]
17 -153.359680 -308.780914 -362.060852 3.396413 32.111534 -112.488678 499.952881
18 -153.359680 -308.780914 -362.060852 3.387733 32.171909 -112.516487 499.952881
19 -153.359680 -308.780914 -362.060852 3.379012 32.232292 -112.544319 499.952881
[planeLockWeightCenter]
17 1000.000000 0.000305 0.076256 -0.011814 -0.004373 -0.000015 1000.000000
18 1000.000000 0.000305 0.076256 -0.011814 -0.004373 -0.000015 1000.000000
19 1000.000000 0.000305 0.076256 -0.011814 -0.004373 -0.000015 1000.000000
[Rear_Toe1_02]
17 379.707825 0.194073 0.000477 -0.000300 -32.476620 0.006967 379.707855
18 379.707825 0.194073 0.000477 -0.000296 -32.423649 0.006965 379.707855
19 379.707825 0.194073 0.000477 -0.000293 -32.370670 0.006962 379.707855
[Rear_Toe1_03]
17 500.129700 0.165701 0.000119 -0.001700 56.482067 0.003778 500.129761
18 500.129700 0.165701 0.000119 -0.001025 56.024498 0.005069 500.129761
19 500.129700 0.165701 0.000119 -0.000375 55.566944 0.006337 500.129761
[Rear_Toe2_02]
17 340.494507 0.000238 -0.000954 0.001191 -70.589211 0.001191 340.494507
18 340.494507 0.000238 -0.000954 0.001190 -70.711327 0.001190 340.494507
19 340.494507 0.000238 -0.000954 0.001190 -70.833458 0.001190 340.494507
[Rear_Toe2_03]
17 433.103577 0.000000 0.000238 0.007101 70.974030 0.007101 433.103546
18 433.103577 0.000000 0.000238 0.007170 71.159309 0.007170 433.103546
19 433.103577 0.000000 0.000238 0.007241 71.344566 0.007241 433.103546
[Rear_Toe3_02]
17 340.494141 -0.000358 -0.000477 0.005414 -67.999962 -0.005058 340.494171
18 340.494141 -0.000358 -0.000477 0.004384 -68.140656 -0.003520 340.494171
19 340.494141 -0.000358 -0.000477 0.003338 -68.281326 -0.001965 340.494171
[Rear_Toe3_03]
17 433.103577 0.001431 -0.000238 0.005908 67.082764 0.005908 433.103546
18 433.103577 0.001431 -0.000238 0.005958 67.280533 0.005958 433.103546
19 433.103577 0.001431 -0.000238 0.006010 67.478294 0.006010 433.103546
[Back_Bone]
17 1312.175781 -701.934692 0.000954 1.470015 0.143016 -86.252144 1488.125488
18 1312.175781 -701.934692 0.000954 1.473542 0.077909 -82.531128 1488.125488
19 1312.175781 -701.934692 0.000954 1.475689 0.007076 -79.487610 1488.125488
[Head]
17 1406.159424 809.709290 0.001431 -0.175494 -1.460777 8.434740 1622.625488
18 1406.159424 809.709290 0.001431 -0.129154 -1.465462 8.275448 1622.625488
19 1406.159424 809.709290 0.001431 -0.082801 -1.470019 8.116152 1622.625488
[Motor_Bone]
17 1158.364380 -417.834747 0.000477 -0.003869 0.048510 -111.494247 1231.419434
18 1158.364380 -417.834747 0.000477 0.022584 0.042382 -113.078850 1231.419434
19 1158.364380 -417.834747 0.000477 0.049187 0.036989 -114.662865 1231.419434
[Ping_Mechanism]
17 1348.725220 359.899292 18.478260 0.000103 -0.000053 82.120995 1396.040283
18 1356.546875 355.180664 20.291292 0.000103 -0.000053 82.120995 1402.420898
19 1367.503296 348.930023 22.102118 0.000103 -0.000053 82.120995 1411.490601
[BN_LookIK]
17 193.241119 1380.371704 -0.002861 0.000000 89.965736 -31.038179 1393.832153
18 193.241119 1380.371704 -0.002861 0.000000 89.965736 -31.038179 1393.832153
19 193.241119 1380.371704 -0.002861 0.000000 89.965736 -31.038179 1393.832153
[bottomMouth]
17 -435.092926 615.759399 -0.000954 -0.000022 0.000016 73.527184 753.966492
18 -435.092926 615.759399 -0.000954 -0.000022 0.000016 73.527184 753.966492
19 -435.092926 615.759399 -0.000954 -0.000022 0.000016 73.527184 753.966492
[L_Mouth01]
17 554.440979 7.658243 838.222046 150.204178 23.759130 109.605339 1005.027161
18 554.440979 7.658243 838.222046 150.204178 23.759130 109.605339 1005.027161
19 554.440979 7.658243 838.222046 150.204178 23.759130 109.605339 1005.027161
[L_mouthFront]
17 551.629089 934.514771 339.150421 0.000081 2.804060 79.119301 1136.941284
18 551.629089 934.514771 339.150421 0.000081 2.804060 79.119301 1136.941284
19 551.629089 934.514771 339.150421 0.000081 2.804060 79.119301 1136.941284
[mouthGun]
17 55.332661 1627.420898 0.000000 0.000023 0.000009 -11.038128 1628.361328
18 55.332661 1627.420898 0.000000 0.000023 0.000009 -11.038128 1628.361328
19 55.332661 1627.420898 0.000000 0.000023 0.000009 -11.038128 1628.361328
[R_Mouth01]
17 554.442383 7.659197 -838.223938 29.795891 -23.759109 109.605331 1005.029541
18 554.442383 7.659197 -838.223938 29.795891 -23.759109 109.605331 1005.029541
19 554.442383 7.659197 -838.223938 29.795891 -23.759109 109.605331 1005.029541
[R_mouthFront]
17 551.629089 934.514282 -339.151367 0.000029 -2.803930 79.119133 1136.941162
18 551.629089 934.514282 -339.151367 0.000029 -2.803930 79.119133 1136.941162
19 551.629089 934.514282 -339.151367 0.000029 -2.803930 79.119133 1136.941162
[TopMouth]
17 461.269867 -56.106091 -0.008583 -0.000059 -0.000268 92.025169 464.669525
18 461.269867 -56.106091 -0.008583 -0.000059 -0.000268 92.025169 464.669525
19 461.269867 -56.106091 -0.008583 -0.000059 -0.000268 92.025169 464.669525
[weapon_bone]
17 -987.239868 1448.372803 0.001431 0.000000 89.965736 -31.038221 1752.833740
18 -987.239868 1448.372803 0.001431 0.000000 89.965736 -31.038221 1752.833740
19 -987.239868 1448.372803 0.001431 0.000000 89.965736 -31.038221 1752.833740
